<svg width="1200" height="675" viewBox="0 0 1200 675" fill="none" xmlns="http://www.w3.org/2000/svg">
  <defs>
    <linearGradient id="bg" x1="0" y1="0" x2="1" y2="1">
      <stop offset="0%" stop-color="#071c2f" />
      <stop offset="100%" stop-color="#081825" />
    </linearGradient>
    <linearGradient id="accent" x1="0" y1="0" x2="1" y2="1">
      <stop offset="0%" stop-color="#5dd9ff" />
      <stop offset="100%" stop-color="#7e5bff" />
    </linearGradient>
  </defs>
  <rect width="1200" height="675" rx="40" fill="url(#bg)" />
  <rect x="40" y="40" width="1120" height="120" rx="24" fill="#0f2242" />
  <text x="80" y="90" fill="#ffffff" font-family="Inter, sans-serif" font-size="42" font-weight="700">Student Performance Analyzer</text>
  <text x="80" y="130" fill="#9bb5d4" font-family="Inter, sans-serif" font-size="18">Interactive performance predictions and model comparison</text>
  <rect x="40" y="180" width="520" height="160" rx="24" fill="#0d1f39" />
  <rect x="580" y="180" width="520" height="160" rx="24" fill="#0d1f39" />
  <rect x="40" y="360" width="400" height="230" rx="28" fill="#0c1c33" />
  <rect x="460" y="360" width="320" height="230" rx="28" fill="#0c1c33" />
  <rect x="800" y="360" width="320" height="230" rx="28" fill="#0c1c33" />
  <rect x="70" y="210" width="140" height="26" rx="13" fill="#162b4b" />
  <rect x="70" y="250" width="420" height="32" rx="16" fill="#163552" />
  <rect x="70" y="300" width="420" height="22" rx="11" fill="#163552" />
  <rect x="70" y="340" width="420" height="22" rx="11" fill="#163552" />
  <text x="580" y="220" fill="#5dd9ff" font-family="Inter, sans-serif" font-size="20" font-weight="600">Model Accuracy</text>
  <rect x="580" y="250" width="430" height="20" rx="10" fill="#13294b" />
  <rect x="580" y="280" width="320" height="20" rx="10" fill="url(#accent)" />
  <text x="580" y="320" fill="#9bb5d4" font-family="Inter, sans-serif" font-size="16">Logistic Regression, Decision Tree, Random Forest</text>
  <rect x="70" y="430" width="320" height="16" rx="8" fill="#102243" />
  <rect x="70" y="460" width="280" height="16" rx="8" fill="#1d3f72" />
  <rect x="70" y="490" width="240" height="16" rx="8" fill="#245fbb" />
  <circle cx="520" cy="510" r="8" fill="#5dd9ff" />
  <path d="M520 510 C560 430 620 430 660 510 S740 620 780 510" stroke="#5dd9ff" stroke-width="7" fill="none" stroke-linecap="round" />
  <circle cx="660" cy="510" r="10" fill="#7e5bff" />
  <rect x="800" y="400" width="240" height="150" rx="20" fill="#102243" />
  <rect x="830" y="430" width="180" height="18" rx="9" fill="#163552" />
  <rect x="830" y="460" width="140" height="18" rx="9" fill="#163552" />
  <rect x="830" y="490" width="190" height="18" rx="9" fill="#163552" />
  <text x="820" y="395" fill="#ffffff" font-family="Inter, sans-serif" font-size="18" font-weight="600">Prediction Summary</text>
  <rect x="820" y="570" width="180" height="10" rx="5" fill="#1a2b4d" />
  <rect x="820" y="590" width="140" height="10" rx="5" fill="#1a2b4d" />
  <rect x="960" y="400" width="120" height="130" rx="20" fill="#102243" />
  <text x="980" y="450" fill="#5dd9ff" font-family="Inter, sans-serif" font-size="38" font-weight="700">72%</text>
  <text x="980" y="490" fill="#9bb5d4" font-family="Inter, sans-serif" font-size="16">High Impact</text>
  <text x="980" y="520" fill="#9bb5d4" font-family="Inter, sans-serif" font-size="14">Student outcomes via dashboard</text>
</svg>
